<mxfile host="Electron" modified="2024-03-13T17:05:55.774Z" agent="Mozilla/5.0 (X11; Linux x86_64) AppleWebKit/537.36 (KHTML, like Gecko) draw.io/24.0.4 Chrome/120.0.6099.109 Electron/28.1.0 Safari/537.36" etag="0tDcZKh3UQRiNEr-KIQ_" version="24.0.4" type="device">
  <diagram name="Page-1" id="bUzElv2l2GWEFmTksL0H">
    <mxGraphModel dx="584" dy="958" grid="1" gridSize="10" guides="1" tooltips="1" connect="1" arrows="1" fold="1" page="1" pageScale="1" pageWidth="850" pageHeight="1100" math="0" shadow="0">
      <root>
        <mxCell id="0" />
        <mxCell id="1" parent="0" />
        <mxCell id="QkMXo-uOz5fR3eblIkdU-6" value="" style="rounded=0;whiteSpace=wrap;html=1;strokeWidth=1;" parent="1" vertex="1">
          <mxGeometry x="1240" y="40" width="120" height="650" as="geometry" />
        </mxCell>
        <mxCell id="QkMXo-uOz5fR3eblIkdU-7" value="" style="rounded=0;whiteSpace=wrap;html=1;fillColor=#E1D5E7;fillStyle=auto;gradientColor=none;strokeWidth=1;" parent="1" vertex="1">
          <mxGeometry x="1240" y="140" width="120" height="190" as="geometry" />
        </mxCell>
        <mxCell id="QkMXo-uOz5fR3eblIkdU-8" value="" style="rounded=0;whiteSpace=wrap;html=1;fillColor=#D5E8D4;strokeWidth=1;fillStyle=auto;" parent="1" vertex="1">
          <mxGeometry x="1240" y="470" width="120" height="190" as="geometry" />
        </mxCell>
        <mxCell id="QkMXo-uOz5fR3eblIkdU-9" value="&lt;font style=&quot;font-size: 16px;&quot;&gt;Pamięć fizyczna&lt;/font&gt;" style="text;html=1;align=center;verticalAlign=middle;whiteSpace=wrap;rounded=0;" parent="1" vertex="1">
          <mxGeometry x="1240" y="10" width="120" height="30" as="geometry" />
        </mxCell>
        <mxCell id="QkMXo-uOz5fR3eblIkdU-10" value="&lt;font style=&quot;font-size: 24px;&quot;&gt;P&lt;sub&gt;1&lt;/sub&gt;&lt;/font&gt;" style="rounded=0;whiteSpace=wrap;html=1;fillColor=#E1D5E7;fillStyle=auto;gradientColor=none;strokeWidth=1;" parent="1" vertex="1">
          <mxGeometry x="1240" y="140" width="120" height="190" as="geometry" />
        </mxCell>
        <mxCell id="QkMXo-uOz5fR3eblIkdU-12" value="&lt;font style=&quot;font-size: 24px;&quot;&gt;P&lt;sub&gt;2&lt;/sub&gt;&lt;/font&gt;" style="rounded=0;whiteSpace=wrap;html=1;fillColor=#D5E8D4;strokeWidth=1;" parent="1" vertex="1">
          <mxGeometry x="1240" y="470" width="120" height="190" as="geometry" />
        </mxCell>
        <mxCell id="QkMXo-uOz5fR3eblIkdU-22" value="" style="endArrow=none;dashed=1;html=1;rounded=0;entryX=0;entryY=0;entryDx=0;entryDy=0;exitX=1;exitY=0;exitDx=0;exitDy=0;" parent="1" source="QkMXo-uOz5fR3eblIkdU-7" target="QkMXo-uOz5fR3eblIkdU-10" edge="1">
          <mxGeometry width="50" height="50" relative="1" as="geometry">
            <mxPoint x="1230" y="100" as="sourcePoint" />
            <mxPoint x="1090" y="100" as="targetPoint" />
          </mxGeometry>
        </mxCell>
        <mxCell id="QkMXo-uOz5fR3eblIkdU-23" value="" style="endArrow=none;dashed=1;html=1;rounded=0;entryX=0;entryY=1;entryDx=0;entryDy=0;exitX=1;exitY=1;exitDx=0;exitDy=0;" parent="1" source="QkMXo-uOz5fR3eblIkdU-7" target="QkMXo-uOz5fR3eblIkdU-10" edge="1">
          <mxGeometry width="50" height="50" relative="1" as="geometry">
            <mxPoint x="1230" y="360" as="sourcePoint" />
            <mxPoint x="1090" y="320" as="targetPoint" />
          </mxGeometry>
        </mxCell>
        <mxCell id="QkMXo-uOz5fR3eblIkdU-24" value="" style="endArrow=none;dashed=1;html=1;rounded=0;entryX=1;entryY=0;entryDx=0;entryDy=0;exitX=0;exitY=0;exitDx=0;exitDy=0;" parent="1" source="QkMXo-uOz5fR3eblIkdU-8" target="QkMXo-uOz5fR3eblIkdU-12" edge="1">
          <mxGeometry width="50" height="50" relative="1" as="geometry">
            <mxPoint x="1230" y="395" as="sourcePoint" />
            <mxPoint x="1090" y="355" as="targetPoint" />
          </mxGeometry>
        </mxCell>
        <mxCell id="QkMXo-uOz5fR3eblIkdU-25" value="" style="endArrow=none;dashed=1;html=1;rounded=0;entryX=1;entryY=1;entryDx=0;entryDy=0;exitX=0;exitY=1;exitDx=0;exitDy=0;" parent="1" source="QkMXo-uOz5fR3eblIkdU-8" target="QkMXo-uOz5fR3eblIkdU-12" edge="1">
          <mxGeometry width="50" height="50" relative="1" as="geometry">
            <mxPoint x="1250" y="480" as="sourcePoint" />
            <mxPoint x="1110" y="460" as="targetPoint" />
          </mxGeometry>
        </mxCell>
        <mxCell id="QkMXo-uOz5fR3eblIkdU-42" value="" style="endArrow=none;html=1;rounded=0;strokeColor=none;" parent="1" edge="1">
          <mxGeometry width="50" height="50" relative="1" as="geometry">
            <mxPoint x="920.43" y="640" as="sourcePoint" />
            <mxPoint x="920" y="40" as="targetPoint" />
          </mxGeometry>
        </mxCell>
        <mxCell id="ApAm6ha_IGB6OoukJDqG-1" value="&lt;font style=&quot;font-size: 17px;&quot;&gt;&lt;b&gt;0&lt;/b&gt;&lt;b&gt;&lt;br&gt;&lt;/b&gt;&lt;/font&gt;" style="text;html=1;align=center;verticalAlign=middle;whiteSpace=wrap;rounded=0;" parent="1" vertex="1">
          <mxGeometry x="1195" y="670" width="60" height="30" as="geometry" />
        </mxCell>
        <mxCell id="ApAm6ha_IGB6OoukJDqG-2" value="&lt;font style=&quot;font-size: 17px;&quot;&gt;&lt;b style=&quot;font-size: 17px;&quot;&gt;2&lt;/b&gt;&lt;/font&gt;&lt;font size=&quot;1&quot;&gt;&lt;b&gt;&lt;sup style=&quot;font-size: 10px;&quot;&gt;N&lt;/sup&gt;&lt;/b&gt;&lt;/font&gt;" style="text;html=1;align=center;verticalAlign=middle;whiteSpace=wrap;rounded=0;fontSize=17;" parent="1" vertex="1">
          <mxGeometry x="1195" y="23" width="60" height="30" as="geometry" />
        </mxCell>
        <mxCell id="ApAm6ha_IGB6OoukJDqG-3" value="" style="endArrow=none;html=1;rounded=0;strokeColor=none;" parent="1" edge="1">
          <mxGeometry width="50" height="50" relative="1" as="geometry">
            <mxPoint x="1680.4299999999998" y="650" as="sourcePoint" />
            <mxPoint x="1680" y="50" as="targetPoint" />
          </mxGeometry>
        </mxCell>
        <mxCell id="a2FD-b09mxuaQO-owgYO-2" value="" style="verticalLabelPosition=bottom;verticalAlign=top;html=1;shape=mxgraph.basic.tick;fillStyle=solid;fillColor=#97D077;" parent="1" vertex="1">
          <mxGeometry x="1290" y="810" width="20" height="20" as="geometry" />
        </mxCell>
        <mxCell id="a2FD-b09mxuaQO-owgYO-7" value="" style="shape=mxgraph.mockup.markup.redX;fillColor=#ff0000;html=1;shadow=0;whiteSpace=wrap;strokeColor=none;" parent="1" vertex="1">
          <mxGeometry x="1450" y="375" width="20" height="20" as="geometry" />
        </mxCell>
        <mxCell id="5kyaPe6Wx0WEQ_OmS1Kb-1" value="&lt;font style=&quot;font-size: 24px;&quot;&gt;P&lt;/font&gt;&lt;font style=&quot;font-size: 20px;&quot;&gt;&lt;sub&gt;3&lt;/sub&gt;&lt;/font&gt;" style="rounded=0;whiteSpace=wrap;html=1;fillColor=#FFCE9F;fillStyle=auto;gradientColor=none;strokeWidth=1;" vertex="1" parent="1">
          <mxGeometry x="1560" y="290" width="120" height="190" as="geometry" />
        </mxCell>
        <mxCell id="5kyaPe6Wx0WEQ_OmS1Kb-2" value="" style="endArrow=classic;html=1;rounded=0;" edge="1" parent="1">
          <mxGeometry width="50" height="50" relative="1" as="geometry">
            <mxPoint x="1530" y="400" as="sourcePoint" />
            <mxPoint x="1380" y="400" as="targetPoint" />
          </mxGeometry>
        </mxCell>
        <mxCell id="5kyaPe6Wx0WEQ_OmS1Kb-3" value="" style="endArrow=classic;html=1;rounded=0;" edge="1" parent="1">
          <mxGeometry width="50" height="50" relative="1" as="geometry">
            <mxPoint x="1540" y="300" as="sourcePoint" />
            <mxPoint x="1370" y="100" as="targetPoint" />
          </mxGeometry>
        </mxCell>
        <mxCell id="5kyaPe6Wx0WEQ_OmS1Kb-4" value="" style="shape=mxgraph.mockup.markup.redX;fillColor=#ff0000;html=1;shadow=0;whiteSpace=wrap;strokeColor=none;" vertex="1" parent="1">
          <mxGeometry x="1464" y="188" width="20" height="20" as="geometry" />
        </mxCell>
      </root>
    </mxGraphModel>
  </diagram>
</mxfile>
